<?xml version="1.0" encoding="utf-8"?>
<!-- Generator: Adobe Illustrator 22.1.0, SVG Export Plug-In . SVG Version: 6.00 Build 0)  -->
<svg version="1.1" id="Capa_1" xmlns="http://www.w3.org/2000/svg" xmlns:xlink="http://www.w3.org/1999/xlink" x="0px" y="0px"
	 viewBox="0 0 438.5 438.5" style="enable-background:new 0 0 438.5 438.5;" xml:space="preserve">
<style type="text/css">
	.st0{fill:url(#SVGID_1_);}
</style>
<linearGradient id="SVGID_1_" gradientUnits="userSpaceOnUse" x1="23.6544" y1="220.7" x2="414.8456" y2="220.7" gradientTransform="matrix(1 0 0 -1 0 440)">
	<stop  offset="0" style="stop-color:#2AFFFC"/>
	<stop  offset="1" style="stop-color:#C555FF"/>
</linearGradient>
<path class="st0" d="M395.3,44.2c-15-15-32-21.4-51.3-21.4H96.3c-21.4,0-38.4,6.4-51.3,21.4c-15,15-21.4,32-21.4,53.4v245.6
	c0,21.4,6.4,38.4,21.4,51.3c15,15,32,21.4,51.3,21.4h245.6c21.4,0,38.4-6.4,51.3-21.4c15-15,21.4-32,21.4-51.3V97.6
	C416.7,76.2,408.1,59.1,395.3,44.2z"/>
<g id="XMLID_1_">
	<g>
		<path d="M313.3,258.4c2,1.9,2.9,4.1,2.9,6.6s-1,4.7-2.9,6.6l-41.7,41.7c-1.9,2-4.1,2.9-6.6,2.9s-4.7-1-6.6-2.9l-39.1-39.1
			l-39.1,39.1c-1.9,2-4.1,2.9-6.6,2.9s-4.7-1-6.6-2.9l-41.7-41.7c-2-1.9-2.9-4.1-2.9-6.6s1-4.7,2.9-6.6l39.1-39.1l-39.1-39.1
			c-2-1.9-2.9-4.1-2.9-6.6s1-4.7,2.9-6.6l41.6-41.7c1.9-2,4.1-2.9,6.6-2.9s4.7,1,6.6,2.9l39.1,39.1l39.1-39.1c1.9-2,4.1-2.9,6.6-2.9
			s4.7,1,6.6,2.9l41.7,41.7c2,1.9,2.9,4.1,2.9,6.6s-1,4.6-2.8,6.6l-39.1,39.1L313.3,258.4z"/>
	</g>
	<g>
	</g>
</g>
</svg>
