<?xml version="1.0" encoding="utf-8"?>
<!-- Generator: Adobe Illustrator 22.1.0, SVG Export Plug-In . SVG Version: 6.00 Build 0)  -->
<svg version="1.1" id="Capa_1" xmlns="http://www.w3.org/2000/svg" xmlns:xlink="http://www.w3.org/1999/xlink" x="0px" y="0px"
	 viewBox="0 0 438.5 438.5" style="enable-background:new 0 0 438.5 438.5;" xml:space="preserve">
<style type="text/css">
	.st0{fill:url(#SVGID_1_);}
</style>
<linearGradient id="SVGID_1_" gradientUnits="userSpaceOnUse" x1="23.6544" y1="220.7" x2="414.8456" y2="220.7" gradientTransform="matrix(1 0 0 -1 0 440)">
	<stop  offset="0" style="stop-color:#1245C6"/>
	<stop  offset="1" style="stop-color:#9909B7"/>
</linearGradient>
<path class="st0" d="M353.7,297.2c-13.9,23.8-32.7,42.6-56.5,56.5s-49.8,20.8-77.9,20.8c-28.2,0-54.1-6.9-77.9-20.8
	S98.8,321,84.9,297.2c-14-23.8-20.9-49.8-20.9-77.9c0-28.2,6.9-54.2,20.8-77.9c13.9-23.8,32.7-42.6,56.5-56.5
	c23.8-14,49.8-20.9,78-20.9s54.2,6.9,77.9,20.8c23.8,13.9,42.6,32.7,56.5,56.5s20.8,49.8,20.8,77.9
	C374.6,247.4,367.6,273.4,353.7,297.2z M395.3,44.2c-15-15-32-21.4-51.3-21.4H96.3c-21.4,0-38.4,6.4-51.3,21.4
	c-15,15-21.4,32-21.4,53.4v245.6c0,21.4,6.4,38.4,21.4,51.3c15,15,32,21.4,51.3,21.4h245.6c21.4,0,38.4-6.4,51.3-21.4
	c15-15,21.4-32,21.4-51.3V97.6C416.7,76.2,408.1,59.1,395.3,44.2z M316.1,173.6c0-2.5-0.9-4.7-2.9-6.6l-41.7-41.7
	c-1.9-1.9-4.1-2.9-6.6-2.9s-4.7,0.9-6.6,2.9l-39.1,39.1l-39.1-39.1c-1.9-1.9-4.1-2.9-6.6-2.9s-4.7,0.9-6.6,2.9L125.3,167
	c-1.9,1.9-2.9,4.1-2.9,6.6s0.9,4.7,2.9,6.6l39.1,39.1l-39.1,39.1c-1.9,1.9-2.9,4.1-2.9,6.6s0.9,4.7,2.9,6.6l41.7,41.7
	c1.9,1.9,4.1,2.9,6.6,2.9s4.7-0.9,6.6-2.9l39.1-39.1l39.1,39.1c1.9,1.9,4.1,2.9,6.6,2.9s4.7-0.9,6.6-2.9l41.7-41.7
	c1.9-1.9,2.9-4.1,2.9-6.6s-0.9-4.7-2.9-6.6l-39.1-39.1l39.1-39.1C315.1,178.2,316.1,176.1,316.1,173.6z"/>
</svg>
