<?xml version="1.0" encoding="utf-8"?>
<!-- Generator: Adobe Illustrator 22.1.0, SVG Export Plug-In . SVG Version: 6.00 Build 0)  -->
<svg version="1.1" id="Layer_1" xmlns="http://www.w3.org/2000/svg" xmlns:xlink="http://www.w3.org/1999/xlink" x="0px" y="0px"
	 viewBox="0 0 24 24" style="enable-background:new 0 0 24 24;" xml:space="preserve">
<style type="text/css">
	.st0{fill:url(#SVGID_1_);}
</style>
<linearGradient id="SVGID_1_" gradientUnits="userSpaceOnUse" x1="1.8391" y1="13.3" x2="23.2094" y2="13.3" gradientTransform="matrix(1 0 0 -1 0 26)">
	<stop  offset="0" style="stop-color:#2AFFFC"/>
	<stop  offset="0.1731" style="stop-color:#55D0FD"/>
	<stop  offset="0.3611" style="stop-color:#7DA4FE"/>
	<stop  offset="0.5431" style="stop-color:#9C82FE"/>
	<stop  offset="0.7145" style="stop-color:#B369FF"/>
	<stop  offset="0.8713" style="stop-color:#C05AFF"/>
	<stop  offset="1" style="stop-color:#C555FF"/>
</linearGradient>
<path class="st0" d="M18.5,15.1c-0.2-0.1-0.3,0-0.4,0.1L17.3,16c-0.1,0.1-0.1,0.2-0.1,0.3v1.5c0,0.5-0.2,1-0.6,1.4s-0.8,0.6-1.4,0.6
	h-10c-0.5,0-1-0.2-1.4-0.6s-0.6-0.8-0.6-1.4v-10c0-0.5,0.2-1,0.6-1.4s0.8-0.6,1.4-0.6h10c0.2,0,0.4,0,0.5,0.1c0.1,0,0.3,0,0.4-0.1
	l0.6-0.6c0.1-0.1,0.1-0.2,0.1-0.3c0-0.1-0.1-0.2-0.2-0.3c-0.4-0.2-0.9-0.3-1.4-0.3h-10c-1,0-1.8,0.3-2.4,1c-0.7,0.7-1,1.5-1,2.4v10
	c0,1,0.3,1.8,1,2.4c0.7,0.7,1.5,1,2.4,1h10c1,0,1.8-0.3,2.4-1c0.7-0.7,1-1.5,1-2.4v-2.3C18.7,15.3,18.6,15.2,18.5,15.1z M9.5,14.7
	v3.4H13l8-8l-3.5-3.4L9.5,14.7z M12.5,17L12.5,17h-0.7v-1.1h-1.1v-0.7l1.4-1.4l1.8,1.8L12.5,17z M17.7,8.8L13.5,13
	c-0.1,0.1-0.3,0.1-0.4,0c-0.1-0.1-0.1-0.3,0-0.4l4.2-4.2c0.1-0.1,0.3-0.1,0.4,0C17.9,8.5,17.9,8.6,17.7,8.8z M22.9,6.6l-1.8-1.8
	c-0.2-0.2-0.5-0.3-0.8-0.3s-0.6,0.1-0.8,0.3l-1.1,1.1l3.5,3.5L23,8.3c0.2-0.2,0.3-0.5,0.3-0.8C23.2,7.1,23.1,6.8,22.9,6.6z"/>
</svg>
