<?xml version="1.0" encoding="utf-8"?>
<!-- Generator: Adobe Illustrator 22.1.0, SVG Export Plug-In . SVG Version: 6.00 Build 0)  -->
<svg version="1.1" id="Layer_1" xmlns="http://www.w3.org/2000/svg" xmlns:xlink="http://www.w3.org/1999/xlink" x="0px" y="0px"
	 viewBox="0 0 24 24" style="enable-background:new 0 0 24 24;" xml:space="preserve">
<style type="text/css">
	.st0{fill:url(#SVGID_1_);}
</style>
<linearGradient id="SVGID_1_" gradientUnits="userSpaceOnUse" x1="2.8461" y1="465.6" x2="22.1461" y2="465.6" gradientTransform="matrix(1 0 0 1 0 -454)">
	<stop  offset="0" style="stop-color:#2AFFFC"/>
	<stop  offset="0.1649" style="stop-color:#53D3FD"/>
	<stop  offset="0.3569" style="stop-color:#7BA6FE"/>
	<stop  offset="0.542" style="stop-color:#9B83FE"/>
	<stop  offset="0.7154" style="stop-color:#B26AFF"/>
	<stop  offset="0.8729" style="stop-color:#C05AFF"/>
	<stop  offset="1" style="stop-color:#C555FF"/>
</linearGradient>
<path class="st0" d="M12.5,7.1l-6.9,5.7l0,0l0,0v5.7c0,0.2,0.1,0.4,0.2,0.5c0.2,0.2,0.3,0.2,0.5,0.2H11v-4.6h3v4.6h4.6
	c0.2,0,0.4-0.1,0.5-0.2c0.2-0.2,0.2-0.3,0.2-0.5v-5.7v-0.1L12.5,7.1z M22,11.5l-2.6-2.2V4.4c0-0.1,0-0.2-0.1-0.3C19.2,4,19.1,4,19,4
	h-2.3c-0.1,0-0.2,0-0.3,0.1c-0.1,0.1-0.1,0.2-0.1,0.3v2.3l-2.9-2.4C13.2,4.1,12.9,4,12.5,4s-0.7,0.1-0.9,0.3L3,11.5
	c-0.1,0.1-0.1,0.1-0.1,0.3c0,0.1,0,0.2,0.1,0.3L3.7,13c0,0,0.1,0,0.2,0.1c0.1,0,0.2,0,0.3-0.1l8.3-6.9l8.3,6.9
	c0.1,0.1,0.1,0.1,0.3,0.1l0,0c0.1,0,0.2-0.1,0.3-0.1l0.7-0.9c0.1-0.1,0.1-0.2,0.1-0.3C22.1,11.7,22.1,11.6,22,11.5z"/>
</svg>
