<?xml version="1.0" encoding="utf-8"?>
<!-- Generator: Adobe Illustrator 22.1.0, SVG Export Plug-In . SVG Version: 6.00 Build 0)  -->
<svg version="1.1" id="Layer_1" xmlns="http://www.w3.org/2000/svg" xmlns:xlink="http://www.w3.org/1999/xlink" x="0px" y="0px"
	 viewBox="0 0 24 24" style="enable-background:new 0 0 24 24;" xml:space="preserve">
<style type="text/css">
	.st0{fill:url(#SVGID_1_);}
</style>
<g>
	<g>
		
			<linearGradient id="SVGID_1_" gradientUnits="userSpaceOnUse" x1="2.5" y1="14.25" x2="22.4332" y2="14.25" gradientTransform="matrix(1 0 0 -1 0 26)">
			<stop  offset="0" style="stop-color:#C555FF"/>
			<stop  offset="0.5" style="stop-color:#2AFFFC"/>
			<stop  offset="1" style="stop-color:#C555FF"/>
		</linearGradient>
		<path class="st0" d="M22,19.1L17.9,15c1-1.4,1.5-3,1.5-4.8c0-1.1-0.2-2.2-0.7-3.3c-0.4-1-1-1.9-1.8-2.7s-1.7-1.4-2.7-1.8
			s-2.1-0.7-3.3-0.7C9.8,1.8,8.7,2,7.7,2.4S5.8,3.4,5,4.2S3.6,5.9,3.2,6.9C2.7,8,2.5,9,2.5,10.2c0,1.1,0.2,2.2,0.7,3.3
			c0.4,1,1,1.9,1.8,2.7C5.8,17,6.7,17.6,7.7,18s2.1,0.7,3.3,0.7c1.8,0,3.4-0.5,4.8-1.5l4.1,4.1c0.3,0.3,0.6,0.5,1.1,0.5
			c0.4,0,0.8-0.2,1.1-0.5c0.3-0.3,0.5-0.7,0.5-1.1C22.4,19.7,22.3,19.4,22,19.1z M14.7,14c-1.1,1.1-2.3,1.6-3.8,1.6S8.2,15.1,7.1,14
			s-1.6-2.3-1.6-3.8S6,7.5,7.1,6.4s2.3-1.6,3.8-1.6s2.7,0.5,3.8,1.6s1.6,2.3,1.6,3.8S15.8,12.9,14.7,14z"/>
	</g>
</g>
</svg>
