<?xml version="1.0" encoding="utf-8"?>
<!-- Generator: Adobe Illustrator 23.0.3, SVG Export Plug-In . SVG Version: 6.00 Build 0)  -->
<svg version="1.1" id="Layer_1" xmlns="http://www.w3.org/2000/svg" xmlns:xlink="http://www.w3.org/1999/xlink" x="0px" y="0px"
	 viewBox="0 0 24 24" style="enable-background:new 0 0 24 24;" xml:space="preserve">
<style type="text/css">
	.st0{fill:url(#SVGID_1_);}
	.st1{fill:url(#SVGID_2_);}
	.st2{fill:url(#SVGID_3_);}
	.st3{fill:url(#SVGID_4_);}
	.st4{fill:url(#SVGID_5_);}
	.st5{fill:url(#SVGID_6_);}
	.st6{fill:url(#SVGID_7_);}
	.st7{fill:url(#SVGID_8_);}
	.st8{fill:url(#SVGID_9_);}
	.st9{fill:url(#SVGID_10_);}
	.st10{fill:url(#SVGID_11_);}
	.st11{fill:url(#SVGID_12_);}
	.st12{fill:url(#SVGID_13_);}
	.st13{fill:url(#SVGID_14_);}
	.st14{fill:url(#SVGID_15_);}
	.st15{fill:url(#SVGID_16_);}
	.st16{fill:url(#SVGID_17_);}
	.st17{fill:url(#SVGID_18_);}
	.st18{fill:url(#SVGID_19_);}
	.st19{fill:url(#SVGID_20_);}
	.st20{fill:url(#SVGID_21_);}
	.st21{fill:url(#SVGID_22_);}
	.st22{fill:url(#SVGID_23_);}
	.st23{fill:url(#SVGID_24_);}
	.st24{fill:url(#SVGID_25_);}
	.st25{fill:url(#SVGID_26_);}
	.st26{fill:url(#SVGID_27_);}
	.st27{fill:url(#SVGID_28_);}
	.st28{fill:url(#SVGID_29_);}
	.st29{fill:url(#SVGID_30_);}
	.st30{fill:url(#SVGID_31_);}
	.st31{fill:url(#SVGID_32_);}
</style>
<linearGradient id="SVGID_1_" gradientUnits="userSpaceOnUse" x1="3.1397" y1="12.7321" x2="20.7335" y2="12.7321">
	<stop  offset="0" style="stop-color:#1245C6"/>
	<stop  offset="1" style="stop-color:#9909B7"/>
</linearGradient>
<path class="st0" d="M19.6,8.3c-0.8-1.3-1.9-2.4-3.2-3.2c-1.3-0.8-2.8-1.2-4.4-1.2c-1.6,0-3.1,0.4-4.4,1.2C6.2,5.9,5.1,7,4.3,8.3
	c-0.8,1.3-1.2,2.8-1.2,4.4c0,1.6,0.4,3.1,1.2,4.4c0.8,1.3,1.9,2.4,3.2,3.2c1.3,0.8,2.8,1.2,4.4,1.2s3.1-0.4,4.4-1.2
	c1.3-0.8,2.4-1.9,3.2-3.2c0.8-1.3,1.2-2.8,1.2-4.4C20.7,11.1,20.3,9.7,19.6,8.3z M17.3,15.9c-0.6,1-1.3,1.7-2.3,2.3
	c-1,0.6-2,0.8-3.1,0.8c-1.1,0-2.2-0.3-3.1-0.8c-1-0.6-1.7-1.3-2.3-2.3c-0.6-1-0.8-2-0.8-3.1c0-1.1,0.3-2.2,0.8-3.1
	c0.6-1,1.3-1.7,2.3-2.3c1-0.6,2-0.8,3.1-0.8c1.1,0,2.2,0.3,3.1,0.8c1,0.6,1.7,1.3,2.3,2.3c0.6,1,0.8,2,0.8,3.1
	C18.2,13.9,17.9,14.9,17.3,15.9z M12.2,8.4c-0.1-0.1-0.2-0.1-0.3-0.1c-0.1,0-0.2,0-0.3,0.1L8,12.1c-0.1,0.1-0.1,0.2-0.1,0.3
	c0,0.1,0,0.2,0.1,0.3c0.1,0.1,0.2,0.1,0.3,0.1h2.2v4c0,0.1,0,0.2,0.1,0.3c0.1,0.1,0.2,0.1,0.3,0.1H13c0.1,0,0.2,0,0.3-0.1
	c0.1-0.1,0.1-0.2,0.1-0.3v-4h2.2c0.2,0,0.3-0.1,0.3-0.2c0.1-0.1,0-0.3-0.1-0.4L12.2,8.4z"/>
</svg>
